<svg xmlns="http://www.w3.org/2000/svg" width="290.778" height="93.414" viewBox="0 0 290.778 93.414">
  <g id="logo" transform="translate(-81.8 -213.1)">
    <g id="Group_21" data-name="Group 21" transform="translate(85.145 213.1)">
      <path id="Path_132" data-name="Path 132" d="M87.1,216.824l13.57-.126c5.3-.063,9.468.757,12.56,2.462a13.227,13.227,0,0,1,6.375,8.016,9.825,9.825,0,0,1,.252,6.122,4.827,4.827,0,0,1-3.408,3.282l.063.316a13.065,13.065,0,0,1,6.312,3.471,15.627,15.627,0,0,1,3.6,6.375c1.2,3.85.821,6.943-1.136,9.215s-5.239,3.408-9.783,3.408l-15.148.126Zm15.59,16.284h3.156A3.95,3.95,0,0,0,109,232.035c.631-.694.694-1.7.316-3.03-.757-2.4-2.777-3.6-6.059-3.535h-2.966Zm2.651,8.458,2.777,8.963h3.724c3.282,0,4.481-1.578,3.535-4.608a5.763,5.763,0,0,0-2.335-3.282,7.341,7.341,0,0,0-4.166-1.136Z" transform="translate(-87.1 -214.426)" fill="#ff0b0a"/>
      <path id="Path_133" data-name="Path 133" d="M181.018,258.756,176.6,250.74l-12.623.126.5,8.016-11.55.126-.631-42.982,14.012-.126,26.193,42.793Zm-9.531-17.42-3.85-7.006c-.884-1.578-1.957-3.6-3.282-6.059s-2.272-4.229-2.777-5.3q.189,1.515.568,4.923c.253,2.272.568,6.754,1.073,13.507Z" transform="translate(-111.148 -214.133)" fill="#ff0b0a"/>
      <path id="Path_134" data-name="Path 134" d="M208.555,258.693,195.3,215.963l10.54-.063,10.351,33.389,14.959-.126,2.9,9.341Z" transform="translate(-127.008 -214.133)" fill="#ff0b0a"/>
      <path id="Path_135" data-name="Path 135" d="M252.355,258.293,239.1,215.563l10.54-.063,10.351,33.389,14.959-.126,2.9,9.341Z" transform="translate(-143.163 -213.985)" fill="#ff0b0a"/>
      <path id="Path_136" data-name="Path 136" d="M319.355,257.63l-23.1.189L283,215.089l23.1-.189,2.9,9.278-12.56.126,2.083,6.69,11.677-.126,2.9,9.278-11.677.126,2.525,8.079,12.56-.126Z" transform="translate(-159.355 -213.764)" fill="#ff0b0a"/>
      <path id="Path_137" data-name="Path 137" d="M342.935,241.866l4.86,15.527-10.54.063L324,214.726l12.75-.126c10.6-.063,17.168,4.1,19.819,12.5q2.272,7.385-3.03,11.55l17.1,18.493-11.929.126L345.649,241.8Zm-2.651-8.71h1.957c3.661,0,4.986-1.83,3.85-5.365-.883-2.966-3.156-4.418-6.753-4.355h-2.083Z" transform="translate(-174.477 -213.653)" fill="#ff0b0a"/>
      <path id="Path_138" data-name="Path 138" d="M389.354,257.093,376.1,214.363l10.541-.063,13.254,42.73Z" transform="translate(-193.693 -213.543)" fill="#ff0b0a"/>
      <path id="Path_139" data-name="Path 139" d="M450.1,256.43l-13.76.126L412.8,226.576h-.252c1.83,4.734,3.093,8.331,3.85,10.856l6,19.251-9.341.063L399.8,214.016l13.759-.126,23.416,29.539h.189c-1.578-4.292-2.777-7.763-3.6-10.351l-6-19.314,9.341-.063Z" transform="translate(-202.434 -213.321)" fill="#ff0b0a"/>
      <path id="Path_140" data-name="Path 140" d="M507.518,255.956,503.1,247.94l-12.623.126.5,8.016-11.55.126-.631-42.982,14.012-.126,26.194,42.793Zm-9.531-17.42-3.85-7.006c-.884-1.578-1.957-3.6-3.282-6.059s-2.272-4.229-2.777-5.3q.189,1.515.568,4.923c.252,2.272.568,6.753,1.073,13.507Z" transform="translate(-231.572 -213.1)" fill="#ff0b0a"/>
    </g>
    <g id="Group_22" data-name="Group 22" transform="translate(81.8 260.437)">
      <path id="Path_141" data-name="Path 141" d="M101.556,291.824l13.191-.126c5.112-.063,8.521.82,10.225,2.525s1.7,4.418,0,8.142a18.84,18.84,0,0,1-4.481,6.249,13.747,13.747,0,0,1-5.807,3.345l-.126.316a4.683,4.683,0,0,1,3.471,3.535c.316,1.641-.189,3.787-1.389,6.438a21.145,21.145,0,0,1-8.079,9.341,22.213,22.213,0,0,1-12.055,3.471l-14.706.126Zm-1.325,25.183L96.064,326.1h3.6a7.153,7.153,0,0,0,6.88-4.671c.631-1.452.757-2.525.252-3.282s-1.578-1.136-3.156-1.136Zm3.913-8.584h3.093a7.048,7.048,0,0,0,3.85-1.073,6.655,6.655,0,0,0,2.588-3.093c1.136-2.462.063-3.661-3.156-3.6h-2.84Z" transform="translate(-81.8 -289.426)" fill="#ff0b0a"/>
      <path id="Path_142" data-name="Path 142" d="M186.755,291.1l-11.866,26.13a33.342,33.342,0,0,1-10.225,13.254,23.63,23.63,0,0,1-14.2,4.8c-5.176.063-8.395-1.452-9.783-4.418-1.389-3.03-.757-7.322,1.83-13L154.5,291.479l10.225-.063-11.613,25.436c-1.389,3.093-1.893,5.3-1.515,6.69s1.515,2.083,3.471,2.02a8.059,8.059,0,0,0,5.491-2.083,20.783,20.783,0,0,0,4.481-6.754l11.55-25.436Z" transform="translate(-103.252 -289.206)" fill="#ff0b0a"/>
      <path id="Path_143" data-name="Path 143" d="M189.1,334.424l19.755-43.361L219.017,291l-15.464,33.894,14.517-.126-4.292,9.468Z" transform="translate(-121.376 -289.17)" fill="#ff0b0a"/>
      <path id="Path_144" data-name="Path 144" d="M231.7,334.024l19.755-43.361,10.225-.063-15.464,33.894,14.517-.126-4.292,9.468Z" transform="translate(-137.088 -289.022)" fill="#ff0b0a"/>
      <path id="Path_145" data-name="Path 145" d="M316.588,310.775c-3.282,7.258-7.574,12.813-12.813,16.789a28.477,28.477,0,0,1-17.294,6l-12.181.126,19.756-43.361,13.065-.126c6.059-.063,9.909,1.7,11.613,5.239C320.312,298.909,319.618,304.022,316.588,310.775Zm-10.793.505c1.831-3.976,2.462-6.943,1.957-8.836s-2.146-2.84-4.923-2.84h-2.966l-11.045,24.3h2.272a12.156,12.156,0,0,0,8.205-3.156C301.693,318.728,303.839,315.509,305.8,311.28Z" transform="translate(-152.801 -288.874)" fill="#ff0b0a"/>
      <path id="Path_146" data-name="Path 146" d="M377.649,310.716c-3.345,7.321-7.385,12.876-12.245,16.663a25.971,25.971,0,0,1-16.284,5.807c-5.933.063-9.594-1.83-10.982-5.617s-.442-9.341,2.84-16.663c3.282-7.2,7.385-12.75,12.245-16.6a25.607,25.607,0,0,1,16.284-5.807c6-.063,9.72,1.83,11.045,5.554C381.941,297.841,380.994,303.395,377.649,310.716Zm-25.941.189q-5.775,12.592,1.894,12.5a10.3,10.3,0,0,0,7.132-3.093c2.146-2.02,4.229-5.239,6.185-9.531,1.957-4.355,2.777-7.511,2.462-9.594s-1.767-3.093-4.229-3.03C360.04,298.156,355.559,302.448,351.708,310.906Z" transform="translate(-176.118 -288.247)" fill="#ff0b0a"/>
      <path id="Path_147" data-name="Path 147" d="M419.632,306.719l16.284-.126-10.667,23.416a49.084,49.084,0,0,1-15.779,2.714c-5.807.063-9.4-1.83-10.856-5.68s-.5-9.341,2.777-16.536c3.219-7.006,7.385-12.5,12.686-16.41a28.74,28.74,0,0,1,17.294-6,24.664,24.664,0,0,1,6.375.694,16.609,16.609,0,0,1,4.607,1.893l-7.448,9.215a12.435,12.435,0,0,0-7.889-2.209,12.575,12.575,0,0,0-8.395,3.408,26.838,26.838,0,0,0-6.817,9.531c-1.831,4.039-2.525,7.132-2.02,9.278.5,2.083,2.146,3.156,4.923,3.156a17.31,17.31,0,0,0,4.418-.568l3.093-6.817-6.754.063Z" transform="translate(-198.408 -288.1)" fill="#ff0b0a"/>
    </g>
  </g>
</svg>
